================= Visit CBTorrents.com For More Exclusives ======================

Remember to signup on CBTorrents.com Its free and give you access to more Exclusives like this.


Format : AVI
Format/Info : Audio Video Interleave
File size : 831 MiB
Duration : 1h 53mn
Overall bit rate : 1 028 Kbps
Writing library : VirtualDub build 32839/release

Video
ID : 0
Format : MPEG-4 Visual
Format profile : Advanced Simple@L5
Format settings, BVOP : Yes
Format settings, QPel : No
Format settings, GMC : No warppoints
Format settings, Matrix : Custom
Codec ID : XVID
Codec ID/Hint : XviD
Duration : 1h 53mn
Bit rate : 890 Kbps
Width : 578 pixels
Height : 314 pixels
Display aspect ratio : 16:9
Frame rate : 25.000 fps
Color space : YUV
Chroma subsampling : 4:2:0
Bit depth : 8 bits
Scan type : Progressive
Bits/(Pixel*Frame) : 0.196
Stream size : 720 MiB (87%)
Writing library : XviD 1.2.1 (UTC 2008-12-04)

Audio
ID : 1
Format : MPEG Audio
Codec ID : 55
Codec ID/Hint : MP3
Duration : 1h 53mn
Bit rate : 128 Kbps
Channel(s) : 2 channels
Sampling rate : 44.1 KHz
Stream size : 103 MiB (12%)
Alignment : Split accross interleaves
Interleave, duration : 40 ms (1.00 video frame)
Interleave, preload duration : 500 ms

IMDB:  http://www.imdb.com/title/tt1067583/


[IMG]http://www.bollywoodreleases.info/images/26515303463686539599.png[/IMG]
[IMG]http://www.bollywoodreleases.info/images/60693433015717289473.png[/IMG]
[IMG]http://www.bollywoodreleases.info/images/80248798391371278063.png[/IMG]

Sample Included in Torrent

Credit to original Ripper


Remember to signup on CBTorrents.com Its free and give you access to more Exclusives like this.

================= Visit CBTorrents.com For More Exclusives ====================